<svg width="121" height="1723" viewBox="0 0 121 1723" fill="none" xmlns="http://www.w3.org/2000/svg">
<path d="M25.6969 19.6547V12.0647H26.6319V15.3757H30.6469V12.0647H31.5819V19.6547H30.6469V16.1237H26.6319V19.6547H25.6969ZM35.4003 19.7647C33.8603 19.7647 33.0023 18.6867 33.0023 16.8387C33.0023 15.0237 33.9703 13.8247 35.5103 13.8247C37.0063 13.8247 37.8093 14.9027 37.6223 16.8607H33.9483C33.9703 18.1697 34.4213 19.0277 35.4773 19.0277C36.2033 19.0277 36.6323 18.5987 36.8963 17.8727L37.7103 18.1037C37.3363 19.1707 36.5443 19.7647 35.4003 19.7647ZM35.4443 14.5397C34.5753 14.5397 34.1023 15.1997 33.9813 16.2007H36.7203C36.7313 15.0787 36.2473 14.5397 35.4443 14.5397ZM40.2695 19.7427C39.2795 19.7427 38.6305 19.2037 38.6305 18.2357C38.6305 17.0037 39.6535 16.2557 41.6115 16.2557H42.1945V15.9147C42.1945 15.0017 41.8315 14.5507 41.0065 14.5507C40.3245 14.5507 39.8295 14.8807 39.5765 15.6617L38.7845 15.3977C39.0815 14.3527 39.9395 13.8247 41.0615 13.8247C42.3485 13.8247 43.0525 14.4737 43.0525 15.7827V18.4887C43.0525 18.8957 43.2835 18.9947 43.8225 18.8187V19.5667C43.6355 19.6657 43.4265 19.7097 43.2065 19.7097C42.5685 19.7097 42.2385 19.3137 42.2825 18.5437H42.1945C41.7655 19.4017 41.0725 19.7427 40.2695 19.7427ZM40.5225 19.0167C41.4685 19.0167 42.2055 18.2357 42.2055 17.1577V16.8607H41.5015C40.3575 16.8607 39.5435 17.3117 39.5435 18.1477C39.5435 18.7197 39.9285 19.0167 40.5225 19.0167ZM46.6218 19.7647C45.3568 19.7647 44.3998 18.8077 44.3998 16.8607C44.3998 14.9797 45.3348 13.8247 46.6658 13.8247C47.4028 13.8247 48.0078 14.1767 48.3818 14.9027H48.4698L48.4258 11.7347H49.3058V19.6547H48.5138L48.4698 18.6757H48.3818C48.0078 19.4127 47.3918 19.7647 46.6218 19.7647ZM46.8858 19.0387C47.9308 19.0387 48.4478 18.1147 48.4478 16.8057C48.4478 15.4527 47.8978 14.5507 46.8418 14.5507C45.7968 14.5507 45.3458 15.4527 45.3458 16.7397C45.3458 18.1147 45.8518 19.0387 46.8858 19.0387ZM53.0068 19.7647C51.4668 19.7647 50.6088 18.6867 50.6088 16.8387C50.6088 15.0237 51.5768 13.8247 53.1168 13.8247C54.6128 13.8247 55.4158 14.9027 55.2288 16.8607H51.5548C51.5768 18.1697 52.0278 19.0277 53.0838 19.0277C53.8098 19.0277 54.2388 18.5987 54.5028 17.8727L55.3168 18.1037C54.9428 19.1707 54.1508 19.7647 53.0068 19.7647ZM53.0508 14.5397C52.1818 14.5397 51.7088 15.1997 51.5878 16.2007H54.3268C54.3378 15.0787 53.8538 14.5397 53.0508 14.5397ZM56.5779 19.6547V13.9347H57.3479L57.4359 14.9357H57.5239C57.8209 14.2097 58.3379 13.8467 58.9649 13.8467C59.1189 13.8467 59.2619 13.8687 59.3939 13.9127V14.8147C59.1629 14.7707 58.9649 14.7487 58.7999 14.7487C57.9089 14.7487 57.4579 15.3647 57.4579 16.5417V19.6547H56.5779Z" fill="black"/>
<path d="M25.6969 385.782V378.192H30.3169V378.94H26.6319V381.723H29.8329V382.471H26.6319V385.782H25.6969ZM33.4775 385.892C31.9375 385.892 31.0795 384.814 31.0795 382.966C31.0795 381.151 32.0475 379.952 33.5875 379.952C35.0835 379.952 35.8865 381.03 35.6995 382.988H32.0255C32.0475 384.297 32.4985 385.155 33.5545 385.155C34.2805 385.155 34.7095 384.726 34.9735 384L35.7875 384.231C35.4135 385.298 34.6215 385.892 33.4775 385.892ZM33.5215 380.667C32.6525 380.667 32.1795 381.327 32.0585 382.328H34.7975C34.8085 381.206 34.3245 380.667 33.5215 380.667ZM38.3466 385.87C37.3566 385.87 36.7076 385.331 36.7076 384.363C36.7076 383.131 37.7306 382.383 39.6886 382.383H40.2716V382.042C40.2716 381.129 39.9086 380.678 39.0836 380.678C38.4016 380.678 37.9066 381.008 37.6536 381.789L36.8616 381.525C37.1586 380.48 38.0166 379.952 39.1386 379.952C40.4256 379.952 41.1296 380.601 41.1296 381.91V384.616C41.1296 385.023 41.3606 385.122 41.8996 384.946V385.694C41.7126 385.793 41.5036 385.837 41.2836 385.837C40.6456 385.837 40.3156 385.441 40.3596 384.671H40.2716C39.8426 385.529 39.1496 385.87 38.3466 385.87ZM38.5996 385.144C39.5456 385.144 40.2826 384.363 40.2826 383.285V382.988H39.5786C38.4346 382.988 37.6206 383.439 37.6206 384.275C37.6206 384.847 38.0056 385.144 38.5996 385.144ZM44.1929 385.892C43.4009 385.892 42.9939 385.463 42.9939 384.561V380.777H42.0919V380.062H42.9939L43.0599 378.522H43.8519V380.062H45.2599V380.777H43.8519V384.396C43.8519 384.88 43.9949 385.089 44.3799 385.089C44.5779 385.089 44.8309 385.034 45.1719 384.913V385.672C44.8969 385.793 44.5669 385.892 44.1929 385.892ZM47.9492 385.892C46.8382 385.892 46.1672 385.188 46.1672 383.934V380.062H47.0472V383.615C47.0472 384.583 47.4322 385.1 48.2352 385.1C49.1812 385.1 49.8082 384.385 49.8082 383.252V380.062H50.6882V385.782H49.9182L49.8302 384.781H49.7422C49.3462 385.529 48.7412 385.892 47.9492 385.892ZM52.2918 385.782V380.062H53.0618L53.1498 381.063H53.2378C53.5348 380.337 54.0518 379.974 54.6788 379.974C54.8328 379.974 54.9758 379.996 55.1078 380.04V380.942C54.8768 380.898 54.6788 380.876 54.5138 380.876C53.6228 380.876 53.1718 381.492 53.1718 382.669V385.782H52.2918ZM57.8515 385.892C56.3115 385.892 55.4535 384.814 55.4535 382.966C55.4535 381.151 56.4215 379.952 57.9615 379.952C59.4575 379.952 60.2605 381.03 60.0735 382.988H56.3995C56.4215 384.297 56.8725 385.155 57.9285 385.155C58.6545 385.155 59.0835 384.726 59.3475 384L60.1615 384.231C59.7875 385.298 58.9955 385.892 57.8515 385.892ZM57.8955 380.667C57.0265 380.667 56.5535 381.327 56.4325 382.328H59.1715C59.1825 381.206 58.6985 380.667 57.8955 380.667ZM63.3366 385.892C62.0716 385.892 61.1146 384.935 61.1146 382.988C61.1146 381.107 62.0496 379.952 63.3806 379.952C64.1176 379.952 64.7226 380.304 65.0966 381.03H65.1846L65.1406 377.862H66.0206V385.782H65.2286L65.1846 384.803H65.0966C64.7226 385.54 64.1066 385.892 63.3366 385.892ZM63.6006 385.166C64.6456 385.166 65.1626 384.242 65.1626 382.933C65.1626 381.58 64.6126 380.678 63.5566 380.678C62.5116 380.678 62.0606 381.58 62.0606 382.867C62.0606 384.242 62.5666 385.166 63.6006 385.166ZM73.0626 385.892C71.0386 385.892 69.8286 384.44 69.8286 382.075C69.8286 379.655 71.1266 378.082 73.1726 378.082C74.7236 378.082 75.7796 378.962 76.0546 380.469L75.1196 380.711C74.8776 379.523 74.1626 378.852 73.0956 378.852C71.6986 378.852 70.8516 380.007 70.8516 381.921C70.8516 383.868 71.7206 385.089 73.1616 385.089C74.1626 385.089 74.8446 384.506 75.2186 383.285L76.1866 383.516C75.6916 385.078 74.5806 385.892 73.0626 385.892ZM79.541 385.892C78.034 385.892 77.099 384.781 77.099 382.988C77.099 381.14 78.089 379.952 79.629 379.952C81.136 379.952 82.071 381.063 82.071 382.856C82.071 384.704 81.081 385.892 79.541 385.892ZM79.618 385.166C80.586 385.166 81.125 384.385 81.125 382.966C81.125 381.503 80.542 380.678 79.552 380.678C78.584 380.678 78.045 381.459 78.045 382.878C78.045 384.341 78.628 385.166 79.618 385.166ZM83.3689 385.782V380.062H84.1389L84.2269 381.063H84.3149C84.7109 380.315 85.3049 379.952 86.1079 379.952C87.2299 379.952 87.9339 380.656 87.9339 381.91V385.782H87.0539V382.229C87.0539 381.261 86.6469 380.744 85.8329 380.744C84.8759 380.744 84.2489 381.459 84.2489 382.592V385.782H83.3689ZM90.8248 385.892C90.0328 385.892 89.6258 385.463 89.6258 384.561V380.777H88.7238V380.062H89.6258L89.6918 378.522H90.4838V380.062H91.8918V380.777H90.4838V384.396C90.4838 384.88 90.6268 385.089 91.0118 385.089C91.2098 385.089 91.4628 385.034 91.8038 384.913V385.672C91.5288 385.793 91.1988 385.892 90.8248 385.892ZM94.9013 385.892C93.3613 385.892 92.5033 384.814 92.5033 382.966C92.5033 381.151 93.4713 379.952 95.0113 379.952C96.5073 379.952 97.3103 381.03 97.1233 382.988H93.4493C93.4713 384.297 93.9223 385.155 94.9783 385.155C95.7043 385.155 96.1333 384.726 96.3973 384L97.2113 384.231C96.8373 385.298 96.0453 385.892 94.9013 385.892ZM94.9453 380.667C94.0763 380.667 93.6033 381.327 93.4823 382.328H96.2213C96.2323 381.206 95.7483 380.667 94.9453 380.667ZM98.4724 385.782V380.062H99.2424L99.3304 381.063H99.4184C99.8144 380.315 100.408 379.952 101.211 379.952C102.333 379.952 103.037 380.656 103.037 381.91V385.782H102.157V382.229C102.157 381.261 101.75 380.744 100.936 380.744C99.9794 380.744 99.3524 381.459 99.3524 382.592V385.782H98.4724ZM105.928 385.892C105.136 385.892 104.729 385.463 104.729 384.561V380.777H103.827V380.062H104.729L104.795 378.522H105.587V380.062H106.995V380.777H105.587V384.396C105.587 384.88 105.73 385.089 106.115 385.089C106.313 385.089 106.566 385.034 106.907 384.913V385.672C106.632 385.793 106.302 385.892 105.928 385.892Z" fill="black"/>
<path d="M28.0949 877.404C26.4999 877.404 25.4879 876.689 25.1029 875.303L26.0379 875.039C26.3679 876.095 27.0499 876.601 28.1389 876.601C29.2059 876.601 29.8109 876.073 29.8109 875.259C29.8109 874.643 29.4699 874.302 28.5789 874.016L27.1489 873.554C26.0599 873.202 25.5429 872.597 25.5429 871.662C25.5429 870.397 26.5109 869.594 28.0069 869.594C29.4039 869.594 30.3279 870.309 30.6579 871.596L29.7449 871.838C29.4919 870.859 28.8979 870.342 27.9409 870.342C27.0389 870.342 26.4779 870.815 26.4779 871.541C26.4779 872.135 26.8519 872.509 27.6329 872.751L29.0189 873.18C30.2509 873.565 30.7789 874.17 30.7789 875.171C30.7789 876.579 29.7779 877.404 28.0949 877.404ZM32.1072 879.604V871.574H32.8992L32.9432 872.542H33.0312C33.4052 871.816 34.0212 871.464 34.7912 871.464C36.0562 871.464 37.0132 872.421 37.0132 874.368C37.0132 876.249 36.0782 877.404 34.7472 877.404C34.0102 877.404 33.4052 877.052 33.0312 876.315H32.9432L32.9872 879.604H32.1072ZM34.5712 876.678C35.6162 876.678 36.0672 875.776 36.0672 874.489C36.0672 873.114 35.5612 872.19 34.5272 872.19C33.4822 872.19 32.9652 873.114 32.9652 874.423C32.9652 875.776 33.5152 876.678 34.5712 876.678ZM40.4502 877.404C38.9432 877.404 38.0082 876.293 38.0082 874.5C38.0082 872.652 38.9982 871.464 40.5382 871.464C42.0452 871.464 42.9802 872.575 42.9802 874.368C42.9802 876.216 41.9902 877.404 40.4502 877.404ZM40.5272 876.678C41.4952 876.678 42.0342 875.897 42.0342 874.478C42.0342 873.015 41.4512 872.19 40.4612 872.19C39.4932 872.19 38.9542 872.971 38.9542 874.39C38.9542 875.853 39.5372 876.678 40.5272 876.678ZM44.2781 877.294V871.574H45.0481L45.1361 872.575H45.2241C45.6201 871.827 46.2141 871.464 47.0171 871.464C48.1391 871.464 48.8431 872.168 48.8431 873.422V877.294H47.9631V873.741C47.9631 872.773 47.5561 872.256 46.7421 872.256C45.7851 872.256 45.1581 872.971 45.1581 874.104V877.294H44.2781ZM52.2717 877.404C51.0507 877.404 50.2367 876.843 49.9617 875.776L50.7977 875.545C51.0177 876.337 51.5567 876.689 52.3157 876.689C53.0637 876.689 53.5147 876.304 53.5147 875.754C53.5147 875.314 53.2287 875.05 52.5357 874.83L51.6557 874.555C50.7097 874.258 50.2807 873.796 50.2807 873.048C50.2807 872.069 51.0397 871.464 52.2277 871.464C53.2947 871.464 54.0317 871.981 54.3067 872.916L53.5037 873.114C53.3057 872.487 52.8547 872.157 52.1947 872.157C51.5567 872.157 51.1277 872.498 51.1277 872.982C51.1277 873.345 51.3697 873.565 51.8647 873.719L52.8987 874.038C53.9547 874.368 54.4167 874.841 54.4167 875.644C54.4167 876.722 53.5917 877.404 52.2717 877.404ZM57.7988 877.404C56.2918 877.404 55.3568 876.293 55.3568 874.5C55.3568 872.652 56.3468 871.464 57.8868 871.464C59.3938 871.464 60.3288 872.575 60.3288 874.368C60.3288 876.216 59.3388 877.404 57.7988 877.404ZM57.8758 876.678C58.8438 876.678 59.3828 875.897 59.3828 874.478C59.3828 873.015 58.7998 872.19 57.8098 872.19C56.8418 872.19 56.3028 872.971 56.3028 874.39C56.3028 875.853 56.8858 876.678 57.8758 876.678ZM61.6267 877.294V871.574H62.3967L62.4847 872.575H62.5727C62.8697 871.849 63.3867 871.486 64.0137 871.486C64.1677 871.486 64.3107 871.508 64.4427 871.552V872.454C64.2117 872.41 64.0137 872.388 63.8487 872.388C62.9577 872.388 62.5067 873.004 62.5067 874.181V877.294H61.6267ZM67.1865 877.404C65.6465 877.404 64.7885 876.326 64.7885 874.478C64.7885 872.663 65.7565 871.464 67.2965 871.464C68.7925 871.464 69.5955 872.542 69.4085 874.5H65.7345C65.7565 875.809 66.2075 876.667 67.2635 876.667C67.9895 876.667 68.4185 876.238 68.6825 875.512L69.4965 875.743C69.1225 876.81 68.3305 877.404 67.1865 877.404ZM67.2305 872.179C66.3615 872.179 65.8885 872.839 65.7675 873.84H68.5065C68.5175 872.718 68.0335 872.179 67.2305 872.179ZM72.6716 877.404C71.4066 877.404 70.4496 876.447 70.4496 874.5C70.4496 872.619 71.3846 871.464 72.7156 871.464C73.4526 871.464 74.0576 871.816 74.4316 872.542H74.5196L74.4756 869.374H75.3556V877.294H74.5636L74.5196 876.315H74.4316C74.0576 877.052 73.4416 877.404 72.6716 877.404ZM72.9356 876.678C73.9806 876.678 74.4976 875.754 74.4976 874.445C74.4976 873.092 73.9476 872.19 72.8916 872.19C71.8466 872.19 71.3956 873.092 71.3956 874.379C71.3956 875.754 71.9016 876.678 72.9356 876.678ZM82.3976 877.404C80.3736 877.404 79.1636 875.952 79.1636 873.587C79.1636 871.167 80.4616 869.594 82.5076 869.594C84.0586 869.594 85.1146 870.474 85.3896 871.981L84.4546 872.223C84.2126 871.035 83.4976 870.364 82.4306 870.364C81.0336 870.364 80.1866 871.519 80.1866 873.433C80.1866 875.38 81.0556 876.601 82.4966 876.601C83.4976 876.601 84.1796 876.018 84.5536 874.797L85.5216 875.028C85.0266 876.59 83.9156 877.404 82.3976 877.404ZM88.876 877.404C87.369 877.404 86.434 876.293 86.434 874.5C86.434 872.652 87.424 871.464 88.964 871.464C90.471 871.464 91.406 872.575 91.406 874.368C91.406 876.216 90.416 877.404 88.876 877.404ZM88.953 876.678C89.921 876.678 90.46 875.897 90.46 874.478C90.46 873.015 89.877 872.19 88.887 872.19C87.919 872.19 87.38 872.971 87.38 874.39C87.38 875.853 87.963 876.678 88.953 876.678ZM92.7039 877.294V871.574H93.4739L93.5619 872.575H93.6499C94.0459 871.827 94.6399 871.464 95.4429 871.464C96.5649 871.464 97.2689 872.168 97.2689 873.422V877.294H96.3889V873.741C96.3889 872.773 95.9819 872.256 95.1679 872.256C94.2109 872.256 93.5839 872.971 93.5839 874.104V877.294H92.7039ZM100.16 877.404C99.3677 877.404 98.9607 876.975 98.9607 876.073V872.289H98.0587V871.574H98.9607L99.0267 870.034H99.8187V871.574H101.227V872.289H99.8187V875.908C99.8187 876.392 99.9617 876.601 100.347 876.601C100.545 876.601 100.798 876.546 101.139 876.425V877.184C100.864 877.305 100.534 877.404 100.16 877.404ZM104.236 877.404C102.696 877.404 101.838 876.326 101.838 874.478C101.838 872.663 102.806 871.464 104.346 871.464C105.842 871.464 106.645 872.542 106.458 874.5H102.784C102.806 875.809 103.257 876.667 104.313 876.667C105.039 876.667 105.468 876.238 105.732 875.512L106.546 875.743C106.172 876.81 105.38 877.404 104.236 877.404ZM104.28 872.179C103.411 872.179 102.938 872.839 102.817 873.84H105.556C105.567 872.718 105.083 872.179 104.28 872.179ZM107.807 877.294V871.574H108.577L108.665 872.575H108.753C109.149 871.827 109.743 871.464 110.546 871.464C111.668 871.464 112.372 872.168 112.372 873.422V877.294H111.492V873.741C111.492 872.773 111.085 872.256 110.271 872.256C109.314 872.256 108.687 872.971 108.687 874.104V877.294H107.807ZM115.263 877.404C114.471 877.404 114.064 876.975 114.064 876.073V872.289H113.162V871.574H114.064L114.13 870.034H114.922V871.574H116.33V872.289H114.922V875.908C114.922 876.392 115.065 876.601 115.45 876.601C115.648 876.601 115.901 876.546 116.242 876.425V877.184C115.967 877.305 115.637 877.404 115.263 877.404Z" fill="black"/>
<path d="M28.5899 1208.86C26.5659 1208.86 25.3559 1207.41 25.3559 1205.04C25.3559 1202.62 26.6539 1201.05 28.6999 1201.05C30.2509 1201.05 31.3069 1201.93 31.5819 1203.44L30.6469 1203.68C30.4049 1202.49 29.6899 1201.82 28.6229 1201.82C27.2259 1201.82 26.3789 1202.97 26.3789 1204.89C26.3789 1206.83 27.2479 1208.06 28.6889 1208.06C29.6899 1208.06 30.3719 1207.47 30.7459 1206.25L31.7139 1206.48C31.2189 1208.04 30.1079 1208.86 28.5899 1208.86ZM34.6503 1208.86C33.5393 1208.86 32.8683 1208.15 32.8683 1206.9V1203.03H33.7483V1206.58C33.7483 1207.55 34.1333 1208.07 34.9363 1208.07C35.8823 1208.07 36.5093 1207.35 36.5093 1206.22V1203.03H37.3893V1208.75H36.6193L36.5313 1207.75H36.4433C36.0473 1208.5 35.4423 1208.86 34.6503 1208.86ZM38.9929 1208.75V1203.03H39.7629L39.8509 1204.03H39.9389C40.2359 1203.3 40.7529 1202.94 41.3799 1202.94C41.5339 1202.94 41.6769 1202.96 41.8089 1203.01V1203.91C41.5779 1203.86 41.3799 1203.84 41.2149 1203.84C40.3239 1203.84 39.8729 1204.46 39.8729 1205.64V1208.75H38.9929ZM43.7607 1208.84C42.7707 1208.84 42.1217 1208.3 42.1217 1207.33C42.1217 1206.1 43.1447 1205.35 45.1027 1205.35H45.6857V1205.01C45.6857 1204.1 45.3227 1203.64 44.4977 1203.64C43.8157 1203.64 43.3207 1203.97 43.0677 1204.76L42.2757 1204.49C42.5727 1203.45 43.4307 1202.92 44.5527 1202.92C45.8397 1202.92 46.5437 1203.57 46.5437 1204.88V1207.58C46.5437 1207.99 46.7747 1208.09 47.3137 1207.91V1208.66C47.1267 1208.76 46.9177 1208.8 46.6977 1208.8C46.0597 1208.8 45.7297 1208.41 45.7737 1207.64H45.6857C45.2567 1208.5 44.5637 1208.84 43.7607 1208.84ZM44.0137 1208.11C44.9597 1208.11 45.6967 1207.33 45.6967 1206.25V1205.95H44.9927C43.8487 1205.95 43.0347 1206.41 43.0347 1207.24C43.0347 1207.81 43.4197 1208.11 44.0137 1208.11ZM49.607 1208.86C48.815 1208.86 48.408 1208.43 48.408 1207.53V1203.74H47.506V1203.03H48.408L48.474 1201.49H49.266V1203.03H50.674V1203.74H49.266V1207.36C49.266 1207.85 49.409 1208.06 49.794 1208.06C49.992 1208.06 50.245 1208 50.586 1207.88V1208.64C50.311 1208.76 49.981 1208.86 49.607 1208.86ZM51.6459 1201.93V1200.83H52.6359V1201.93H51.6459ZM51.7009 1208.75V1203.03H52.5809V1208.75H51.7009ZM56.3164 1208.86C54.8094 1208.86 53.8744 1207.75 53.8744 1205.95C53.8744 1204.11 54.8644 1202.92 56.4044 1202.92C57.9114 1202.92 58.8464 1204.03 58.8464 1205.82C58.8464 1207.67 57.8564 1208.86 56.3164 1208.86ZM56.3934 1208.13C57.3614 1208.13 57.9004 1207.35 57.9004 1205.93C57.9004 1204.47 57.3174 1203.64 56.3274 1203.64C55.3594 1203.64 54.8204 1204.43 54.8204 1205.84C54.8204 1207.31 55.4034 1208.13 56.3934 1208.13ZM60.1443 1208.75V1203.03H60.9143L61.0023 1204.03H61.0903C61.4863 1203.28 62.0803 1202.92 62.8833 1202.92C64.0053 1202.92 64.7093 1203.62 64.7093 1204.88V1208.75H63.8293V1205.2C63.8293 1204.23 63.4223 1203.71 62.6083 1203.71C61.6513 1203.71 61.0243 1204.43 61.0243 1205.56V1208.75H60.1443ZM70.7969 1208.86C69.2899 1208.86 68.3549 1207.75 68.3549 1205.95C68.3549 1204.11 69.3449 1202.92 70.8849 1202.92C72.3919 1202.92 73.3269 1204.03 73.3269 1205.82C73.3269 1207.67 72.3369 1208.86 70.7969 1208.86ZM70.8739 1208.13C71.8419 1208.13 72.3809 1207.35 72.3809 1205.93C72.3809 1204.47 71.7979 1203.64 70.8079 1203.64C69.8399 1203.64 69.3009 1204.43 69.3009 1205.84C69.3009 1207.31 69.8839 1208.13 70.8739 1208.13ZM73.9221 1203.74V1203.03H74.8021V1202.31C74.8021 1201.24 75.3081 1200.72 76.3531 1200.72C76.6941 1200.72 77.0461 1200.77 77.3651 1200.88V1201.66C76.9581 1201.54 76.6831 1201.49 76.4081 1201.49C75.8801 1201.49 75.6821 1201.71 75.6821 1202.34V1203.03H77.2111V1203.74H75.6821V1208.75H74.8021V1203.74H73.9221ZM80.5788 1208.75V1201.16H81.5138V1208H84.8688V1208.75H80.5788ZM85.7524 1201.93V1200.83H86.7424V1201.93H85.7524ZM85.8074 1208.75V1203.03H86.6874V1208.75H85.8074ZM88.2888 1208.75V1203.03H89.0588L89.1468 1204.03H89.2348C89.6308 1203.28 90.2248 1202.92 91.0278 1202.92C92.1498 1202.92 92.8538 1203.62 92.8538 1204.88V1208.75H91.9738V1205.2C91.9738 1204.23 91.5668 1203.71 90.7528 1203.71C89.7958 1203.71 89.1688 1204.43 89.1688 1205.56V1208.75H88.2888ZM94.3904 1208.75V1200.83H95.2704V1205.79L97.7234 1203.03H98.8564L96.7224 1205.31L99.0214 1208.75H97.9434L96.1064 1205.97L95.2704 1206.86V1208.75H94.3904ZM101.6 1208.86C100.379 1208.86 99.5648 1208.3 99.2898 1207.23L100.126 1207C100.346 1207.79 100.885 1208.14 101.644 1208.14C102.392 1208.14 102.843 1207.76 102.843 1207.21C102.843 1206.77 102.557 1206.5 101.864 1206.28L100.984 1206.01C100.038 1205.71 99.6088 1205.25 99.6088 1204.5C99.6088 1203.52 100.368 1202.92 101.556 1202.92C102.623 1202.92 103.36 1203.44 103.635 1204.37L102.832 1204.57C102.634 1203.94 102.183 1203.61 101.523 1203.61C100.885 1203.61 100.456 1203.95 100.456 1204.44C100.456 1204.8 100.698 1205.02 101.193 1205.17L102.227 1205.49C103.283 1205.82 103.745 1206.3 103.745 1207.1C103.745 1208.18 102.92 1208.86 101.6 1208.86Z" fill="black"/>
<path d="M29.8989 1482.82C28.6119 1482.82 27.9849 1482.03 28.2049 1480.49C26.4229 1480.29 25.3559 1478.91 25.3559 1476.68C25.3559 1474.24 26.6649 1472.7 28.7659 1472.7C30.8119 1472.7 32.0659 1474.14 32.0659 1476.55C32.0659 1478.86 30.8889 1480.36 28.9639 1480.5C28.8429 1481.53 29.1729 1482.03 29.9759 1482.03C30.3169 1482.03 30.6689 1481.94 31.1419 1481.73V1482.58C30.7459 1482.73 30.3279 1482.82 29.8989 1482.82ZM28.7439 1479.73C30.1849 1479.73 31.0429 1478.64 31.0429 1476.67C31.0429 1474.66 30.1739 1473.48 28.6779 1473.48C27.2369 1473.48 26.3789 1474.58 26.3789 1476.56C26.3789 1478.56 27.2479 1479.73 28.7439 1479.73ZM35.166 1480.51C34.055 1480.51 33.384 1479.81 33.384 1478.55V1474.68H34.264V1478.23C34.264 1479.2 34.649 1479.72 35.452 1479.72C36.398 1479.72 37.025 1479 37.025 1477.87V1474.68H37.905V1480.4H37.135L37.047 1479.4H36.959C36.563 1480.15 35.958 1480.51 35.166 1480.51ZM41.6426 1480.51C40.1356 1480.51 39.2006 1479.4 39.2006 1477.61C39.2006 1475.76 40.1906 1474.57 41.7306 1474.57C43.2376 1474.57 44.1726 1475.68 44.1726 1477.48C44.1726 1479.32 43.1826 1480.51 41.6426 1480.51ZM41.7196 1479.79C42.6876 1479.79 43.2266 1479 43.2266 1477.59C43.2266 1476.12 42.6436 1475.3 41.6536 1475.3C40.6856 1475.3 40.1466 1476.08 40.1466 1477.5C40.1466 1478.96 40.7296 1479.79 41.7196 1479.79ZM46.8248 1480.51C46.0328 1480.51 45.6258 1480.08 45.6258 1479.18V1475.4H44.7238V1474.68H45.6258L45.6918 1473.14H46.4838V1474.68H47.8918V1475.4H46.4838V1479.02C46.4838 1479.5 46.6268 1479.71 47.0118 1479.71C47.2098 1479.71 47.4628 1479.65 47.8038 1479.53V1480.29C47.5288 1480.41 47.1988 1480.51 46.8248 1480.51ZM50.9013 1480.51C49.3613 1480.51 48.5033 1479.43 48.5033 1477.59C48.5033 1475.77 49.4713 1474.57 51.0113 1474.57C52.5073 1474.57 53.3103 1475.65 53.1233 1477.61H49.4493C49.4713 1478.92 49.9223 1479.77 50.9783 1479.77C51.7043 1479.77 52.1333 1479.35 52.3973 1478.62L53.2113 1478.85C52.8373 1479.92 52.0453 1480.51 50.9013 1480.51ZM50.9453 1475.29C50.0763 1475.29 49.6033 1475.95 49.4823 1476.95H52.2213C52.2323 1475.83 51.7483 1475.29 50.9453 1475.29ZM56.1964 1481.83L59.4194 1472.81H60.2994L57.0764 1481.83H56.1964ZM68.1734 1482.82C66.8864 1482.82 66.2594 1482.03 66.4794 1480.49C64.6974 1480.29 63.6304 1478.91 63.6304 1476.68C63.6304 1474.24 64.9394 1472.7 67.0404 1472.7C69.0864 1472.7 70.3404 1474.14 70.3404 1476.55C70.3404 1478.86 69.1634 1480.36 67.2384 1480.5C67.1174 1481.53 67.4474 1482.03 68.2504 1482.03C68.5914 1482.03 68.9434 1481.94 69.4164 1481.73V1482.58C69.0204 1482.73 68.6024 1482.82 68.1734 1482.82ZM67.0184 1479.73C68.4594 1479.73 69.3174 1478.64 69.3174 1476.67C69.3174 1474.66 68.4484 1473.48 66.9524 1473.48C65.5114 1473.48 64.6534 1474.58 64.6534 1476.56C64.6534 1478.56 65.5224 1479.73 67.0184 1479.73ZM73.4404 1480.51C72.3294 1480.51 71.6584 1479.81 71.6584 1478.55V1474.68H72.5384V1478.23C72.5384 1479.2 72.9234 1479.72 73.7264 1479.72C74.6724 1479.72 75.2994 1479 75.2994 1477.87V1474.68H76.1794V1480.4H75.4094L75.3214 1479.4H75.2334C74.8374 1480.15 74.2324 1480.51 73.4404 1480.51ZM77.728 1473.58V1472.48H78.718V1473.58H77.728ZM77.783 1480.4V1474.68H78.663V1480.4H77.783ZM79.8134 1480.4V1479.91L82.7504 1475.4H79.9454V1474.68H83.8834V1475.18L80.9464 1479.69H83.9714V1480.4H79.8134ZM86.7365 1481.83L89.9595 1472.81H90.8395L87.6165 1481.83H86.7365ZM94.5114 1480.4V1472.81H97.0304C98.7574 1472.81 99.7254 1473.55 99.7254 1475.19C99.7254 1476.88 98.6694 1477.78 96.7994 1477.78H95.4464V1480.4H94.5114ZM96.8874 1473.56H95.4464V1477.04H96.8324C98.0864 1477.04 98.7024 1476.55 98.7024 1475.3C98.7024 1474.19 98.2294 1473.56 96.8874 1473.56ZM103.034 1480.51C101.527 1480.51 100.592 1479.4 100.592 1477.61C100.592 1475.76 101.582 1474.57 103.122 1474.57C104.629 1474.57 105.564 1475.68 105.564 1477.48C105.564 1479.32 104.574 1480.51 103.034 1480.51ZM103.111 1479.79C104.079 1479.79 104.618 1479 104.618 1477.59C104.618 1476.12 104.035 1475.3 103.045 1475.3C102.077 1475.3 101.538 1476.08 101.538 1477.5C101.538 1478.96 102.121 1479.79 103.111 1479.79ZM106.862 1480.4V1472.48H107.742V1480.4H106.862ZM109.344 1480.4V1472.48H110.224V1480.4H109.344ZM111.902 1480.4V1479.08H113.112V1480.4H111.902ZM114.867 1480.4V1479.08H116.077V1480.4H114.867ZM117.832 1480.4V1479.08H119.042V1480.4H117.832Z" fill="black"/>
<path d="M25.6969 1654.75V1647.16H30.3169V1647.91H26.6319V1650.69H29.8329V1651.44H26.6319V1654.75H25.6969ZM33.5215 1654.86C32.0145 1654.86 31.0795 1653.75 31.0795 1651.96C31.0795 1650.11 32.0695 1648.92 33.6095 1648.92C35.1165 1648.92 36.0515 1650.03 36.0515 1651.82C36.0515 1653.67 35.0615 1654.86 33.5215 1654.86ZM33.5985 1654.13C34.5665 1654.13 35.1055 1653.35 35.1055 1651.93C35.1055 1650.47 34.5225 1649.65 33.5325 1649.65C32.5645 1649.65 32.0255 1650.43 32.0255 1651.85C32.0255 1653.31 32.6085 1654.13 33.5985 1654.13ZM39.4834 1654.86C37.9764 1654.86 37.0414 1653.75 37.0414 1651.96C37.0414 1650.11 38.0314 1648.92 39.5714 1648.92C41.0784 1648.92 42.0134 1650.03 42.0134 1651.82C42.0134 1653.67 41.0234 1654.86 39.4834 1654.86ZM39.5604 1654.13C40.5284 1654.13 41.0674 1653.35 41.0674 1651.93C41.0674 1650.47 40.4844 1649.65 39.4944 1649.65C38.5264 1649.65 37.9874 1650.43 37.9874 1651.85C37.9874 1653.31 38.5704 1654.13 39.5604 1654.13ZM44.6656 1654.86C43.8736 1654.86 43.4666 1654.43 43.4666 1653.53V1649.74H42.5646V1649.03H43.4666L43.5326 1647.49H44.3246V1649.03H45.7326V1649.74H44.3246V1653.36C44.3246 1653.85 44.4676 1654.06 44.8526 1654.06C45.0506 1654.06 45.3036 1654 45.6446 1653.88V1654.64C45.3696 1654.76 45.0396 1654.86 44.6656 1654.86ZM48.7421 1654.86C47.2021 1654.86 46.3441 1653.78 46.3441 1651.93C46.3441 1650.12 47.3121 1648.92 48.8521 1648.92C50.3481 1648.92 51.1511 1650 50.9641 1651.96H47.2901C47.3121 1653.26 47.7631 1654.12 48.8191 1654.12C49.5451 1654.12 49.9741 1653.69 50.2381 1652.97L51.0521 1653.2C50.6781 1654.27 49.8861 1654.86 48.7421 1654.86ZM48.7861 1649.63C47.9171 1649.63 47.4441 1650.29 47.3231 1651.3H50.0621C50.0731 1650.17 49.5891 1649.63 48.7861 1649.63ZM52.3133 1654.75V1649.03H53.0833L53.1713 1650.03H53.2593C53.5563 1649.3 54.0733 1648.94 54.7003 1648.94C54.8543 1648.94 54.9973 1648.96 55.1293 1649.01V1649.91C54.8983 1649.87 54.7003 1649.84 54.5353 1649.84C53.6443 1649.84 53.1933 1650.46 53.1933 1651.64V1654.75H52.3133Z" fill="black"/>
<path d="M1.34668 0.399994L1.34668 31.9093" stroke="black" stroke-width="2"/>
<path d="M1.34668 53.3678L1.34671 711.196" stroke="black" stroke-width="2"/>
<path d="M1.34668 732.655V1014.93" stroke="black" stroke-width="2"/>
<path d="M1.34668 1039.87L1.34669 1370.62" stroke="black" stroke-width="2"/>
<path d="M1.34668 1393.6L1.34669 1560.2" stroke="black" stroke-width="2"/>
<path d="M1.34668 1579.82L1.34669 1722.68" stroke="black" stroke-width="2"/>
</svg>
