<svg width="65" height="38" viewBox="0 0 65 38" fill="none" xmlns="http://www.w3.org/2000/svg">
<path d="M17.9799 27.8056C17.3705 30.4066 19.0158 32.9458 23.2203 32.9458C25.2069 32.9458 27.0008 32.3583 29.0843 30.7705L30.5103 26.2731C29.7985 26.7337 29.2941 26.9385 28.8264 26.9385C28.0342 26.9385 27.9124 26.3192 28.1561 25.5141L35.834 1.29924H25.0484L19.9298 19.3211C15.055 24.8948 13.8363 26.1954 12.6175 26.1954C11.7645 26.1954 11.3379 25.5761 11.7645 24.3374L17.858 6.06789C18.7111 3.46681 16.1518 0.865723 11.9473 0.865723C8.59581 0.865723 5.79277 2.53785 1.22261 7.86388L2.38038 9.22636C4.51312 7.55423 5.48809 6.87299 6.34119 6.87299C7.13335 6.87299 7.31616 7.4923 7.01148 8.2974L0.49138 25.638C-0.910137 29.4158 2.80693 32.8839 6.7068 32.8839C10.2411 32.8839 13.9581 30.2828 18.7111 23.7181L18.9548 23.7801L17.9799 27.8056Z" fill="black"/>
<path d="M46.7412 32.3534C45.891 34.8774 48.4416 37.4013 52.6318 37.4013C55.9719 37.4013 58.7654 35.7788 63.32 30.6107L62.1661 29.2886C60.0406 30.9111 59.069 31.5722 58.2188 31.5722C57.4293 31.5722 57.2472 30.9712 57.5508 30.19L64.0487 13.3636C65.4454 9.69783 61.741 6.21235 57.8544 6.21235C54.3322 6.21235 50.6278 8.85651 45.7696 15.2265L45.5267 15.1664L46.5591 11.2603C47.1663 8.73632 45.466 6.27245 41.2757 6.27245C39.2959 6.27245 37.5081 6.84254 35.4318 8.38325L34.0106 12.7473C34.7199 12.3003 35.2226 12.1016 35.6888 12.1016C36.4782 12.1016 36.5997 12.7025 36.3568 13.4838L28.7051 36.9807H39.4539L44.555 19.4932C49.5347 14.0847 50.7493 12.8227 51.9638 12.8227C52.814 12.8227 53.2391 13.4237 52.814 14.6256L46.7412 32.3534Z" fill="black"/>
</svg>
