<svg width="185" height="22" viewBox="0 0 185 22" fill="none" xmlns="http://www.w3.org/2000/svg">
<path d="M5.256 20.424L5.352 19.08L5.256 17.928L5.304 16.536L5.4 15.312L5.352 14.064L5.232 12.864L5.352 11.736L5.232 10.56L5.424 9.36L5.232 8.064L5.376 6.84L4.056 5.448L2.688 5.592L1.296 5.616L0.048 4.32L0 2.928L1.32 1.704L2.4 1.728H3.648L4.944 1.584H6.048L7.224 1.608L8.4 1.704L9.576 1.656L10.92 1.68L12.144 1.584L13.272 1.728L14.448 3.024L14.544 4.344L13.272 5.568L11.928 5.472L10.464 5.448L9.312 6.792L9.216 8.112V9.312L9.288 10.368L9.24 11.64L9.168 12.936L9.336 14.184V15.288L9.24 16.704L9.336 17.904L9.24 19.152L9.144 20.256L7.92 21.528L6.624 21.456L5.256 20.424Z" fill="currentColor"/>
<path d="M15.8676 20.28L16.0596 19.2L15.9156 18.024L16.0116 16.776L16.0356 15.696L15.9396 14.472L15.8676 13.392L15.8436 12.168L16.0116 11.088L15.8676 9.792L15.8916 8.808L16.0356 7.488L15.9876 6.456L15.9156 5.28L16.0116 4.008L16.0596 2.76L17.1636 1.728L18.6276 1.608L19.7556 2.88L19.9476 4.152L19.8516 5.592L19.8036 6.768L19.8996 8.016L20.9796 9.504L22.2276 9.336L23.3556 9.456L24.7236 8.184L24.6276 6.768L24.5556 5.616L24.5796 4.272L24.6996 3.048L25.9236 1.776H27.2436L28.6116 2.808L28.4436 3.96L28.5876 5.088L28.3956 6.312L28.5396 7.632L28.5156 8.616V9.792L28.4436 11.088L28.4676 12.192L28.4436 13.296L28.5156 14.64L28.4916 15.6V16.944L28.4676 18L28.3956 19.224L28.4676 20.28L27.3156 21.504L25.9716 21.552L24.7236 20.376L24.6516 19.248L24.5316 17.928L24.5796 16.944L24.5076 15.768V14.52L23.3316 13.392L22.2756 13.368L20.9796 13.32L19.9476 14.4L19.8516 15.552L19.7316 16.848V19.104L19.8276 20.448L18.6516 21.576L17.3556 21.648L15.8676 20.28Z" fill="currentColor"/>
<path d="M31.224 20.424L31.056 19.248L31.248 18L31.176 16.92L31.08 15.744L31.128 14.52V13.488L31.248 12.096L31.104 10.968V9.816L31.176 8.76V7.536L31.104 6.408L31.2 5.232L31.104 4.08L31.248 2.832L32.352 1.8L33.672 1.608L34.872 1.728L36.096 1.632L37.128 1.752L39.648 1.704L40.848 1.752L41.928 2.88L42.072 4.248L40.776 5.664L39.696 5.616L38.616 5.472H37.272L36.096 5.64L34.944 6.48L36.264 7.344H37.416L38.64 8.472L38.544 9.84L37.44 11.04L36.288 11.064L35.136 12.384L34.992 13.704V15L35.088 16.464L36.168 17.784L37.44 17.736L38.592 17.664L39.624 17.616L40.872 17.784L42.048 18.864L42.024 20.208L40.872 21.48L38.52 21.624L37.248 21.48L35.976 21.672L34.68 21.624L33.456 21.672H32.4L31.224 20.424Z" fill="currentColor"/>
<path d="M53.5371 1.224L53.2491 2.352L52.6731 3.552L52.3131 4.776L50.6571 6.024L49.7211 5.904L48.5451 4.872L48.5931 3.792L49.4091 2.16L50.2491 1.608L51.2091 0.912001L53.0811 0L53.5371 1.224Z" fill="currentColor"/>
<path d="M61.2728 1.56L62.4248 2.016L63.6248 2.568L64.3688 3.288L65.2087 4.32L65.6647 5.496L65.9528 6.528L66.0728 8.736L66.1927 11.04L66.0247 12.144V13.128L66.1208 14.448V16.752L65.6888 17.928L65.0888 18.936L64.4408 19.776L63.5288 20.736L62.5208 21.36L61.3208 21.696L58.9688 21.504L58.0088 21.24L56.7368 20.784L55.9207 20.304L55.1528 19.248L55.2248 17.544L56.1608 16.656L57.8167 16.872L58.9928 17.664L61.1528 17.592L62.0648 16.728L61.2008 15.816L59.0168 15.96L57.9368 15.576L56.9287 14.952L55.8008 14.232L55.2488 13.2L54.2407 11.112L54.3368 8.832L54.2168 6.648L54.6248 5.496L55.0807 4.416L56.0408 3.288L56.7848 2.664L57.9608 1.896L58.9448 1.608L61.2728 1.56ZM62.3048 8.664L62.0408 6.72L61.3688 5.808L59.1847 5.688L58.2488 6.576L58.1528 8.76L58.3688 10.824L59.1128 11.856H61.2008L62.0408 11.016L62.3048 8.664Z" fill="currentColor"/>
<path d="M74.0218 21.576L72.7498 21.312L71.5978 20.736L70.7098 19.944L69.7018 19.224L69.0298 18.192L68.5258 17.064L68.2858 15.624L68.0218 13.224L67.9978 12.12L68.1178 11.112L68.1418 9.816L68.2378 7.56L68.5498 6.36L69.0778 5.16L69.7018 4.032L70.5658 3.12L71.7418 2.592L72.7978 1.848L74.1178 1.656L76.5898 1.704L77.6938 1.944L78.9178 2.496L79.9738 3.312L80.7418 4.008L81.5578 5.184L82.0378 6.336L82.3978 7.536L82.5898 10.008L82.4698 10.992L82.5418 12.144L82.4698 13.224V15.816L82.0138 17.04L81.6298 18.192L80.7658 19.2L80.0458 19.944L79.0378 20.688L77.6938 21.336L76.5658 21.672L74.0218 21.576ZM76.5898 17.52L77.7898 16.824L78.4858 15.696L78.6058 13.416L78.7738 12.264L78.7498 11.16L78.6538 9.96L78.2938 7.56L77.7658 6.336L76.4938 5.784L74.0698 5.616L72.8698 6.36L72.1018 7.464L71.9098 9.96L72.0298 11.16L71.9818 12.192L72.0298 13.344L72.2458 15.72L72.8218 16.896L73.9978 17.64L76.5898 17.52Z" fill="currentColor"/>
<path d="M99.9129 20.376L100.009 19.296L99.9609 17.976L99.8889 16.872L99.9609 15.792L99.8889 14.496L100.105 13.344L99.9369 12.144V11.16L99.8889 9.984V8.616L99.9129 7.44L100.105 6.264L99.9369 5.16L100.081 3.936V2.976L101.281 1.776L102.409 1.584L103.441 1.8L106.081 1.848L107.209 2.064L108.289 2.736L109.345 3.312L110.137 4.32L111.073 5.304L111.577 6.336L111.937 7.512L111.913 10.176L111.601 11.4L110.857 12.336L110.161 13.416L109.321 14.256L108.385 15L107.281 15.648L106.009 15.936L104.233 15.96L103.945 17.088L103.921 18.12L103.825 19.464L103.945 20.568L102.673 21.504L101.209 21.624L99.9129 20.376ZM104.377 12.024L106.033 11.808L107.017 11.16L107.785 10.008L107.713 7.608L106.993 6.576L105.913 5.784L104.329 5.664L103.969 6.984L103.777 8.16L103.897 9.456V10.872L104.377 12.024Z" fill="currentColor"/>
<path d="M111.361 20.328L111.721 19.344L111.937 18.048L112.465 16.992L112.705 15.696L113.137 14.52L113.497 13.368L113.809 12.216L114.097 11.04L114.481 9.768L114.793 8.76L115.177 7.488L115.465 6.456L115.897 5.256L116.161 3.912L116.449 2.832L117.985 1.608L118.945 1.728L120.313 2.856L120.793 4.128L121.081 5.088L121.465 6.456L121.801 7.584L122.137 8.688L122.401 9.768L122.785 10.968L123.025 12.24L123.361 13.392L123.769 14.544L124.153 15.768L124.561 16.872L124.777 18.024L125.041 19.32L125.569 20.4L124.489 21.576H123.217L121.369 20.52L121.129 19.392L120.721 18.192L120.457 17.04L119.017 16.104L117.745 16.08L116.425 17.088L116.113 18.12L115.633 19.296L115.345 20.352L113.761 21.552L112.345 21.504L111.361 20.328ZM118.417 12.168L118.825 11.064L118.201 11.184L118.417 12.168Z" fill="currentColor"/>
<path d="M127.364 20.28L127.316 19.224L127.172 18.096L127.292 16.848L127.196 15.744L127.22 14.592L127.196 13.392L127.388 12.144L127.34 11.016L127.316 9.792L127.34 8.592L127.268 7.656V6.432L127.22 5.256L127.316 4.008L127.196 2.808L128.468 1.752L129.74 1.8L130.772 1.632L133.364 1.92L134.396 2.112L135.596 2.64L136.748 3.408L137.42 4.344L138.38 5.208L138.764 6.384L139.1 7.632L139.052 10.056L138.86 11.04L138.404 12.192L137.684 13.2V14.952L138.38 16.056L139.004 17.184L139.676 18.312L140.156 19.488L140.9 20.448L140.348 21.648L139.22 21.456L138.116 21.624L136.364 20.616L135.836 19.728L135.38 18.648L134.732 17.736L134.108 16.896L132.884 15.984L131.492 16.08L131.06 17.064L131.204 18.288L131.108 19.368L131.132 20.52L129.764 21.672L128.66 21.552L127.364 20.28ZM131.564 12.216L133.268 11.976L134.396 11.28L135.116 10.008V7.704L134.468 6.48L133.196 5.784L131.516 5.664L131.108 6.96L131.252 8.28L131.18 9.456V10.776L131.564 12.216Z" fill="currentColor"/>
<path d="M143.045 20.424L142.877 19.248L143.069 18L142.997 16.92L142.901 15.744L142.949 14.52V13.488L143.069 12.096L142.925 10.968V9.816L142.997 8.76V7.536L142.925 6.408L143.021 5.232L142.925 4.08L143.069 2.832L144.173 1.8L145.493 1.608L146.693 1.728L147.917 1.632L148.949 1.752L151.469 1.704L152.669 1.752L153.749 2.88L153.893 4.248L152.597 5.664L151.517 5.616L150.437 5.472H149.093L147.917 5.64L146.765 6.48L148.085 7.344H149.237L150.461 8.472L150.365 9.84L149.261 11.04L148.109 11.064L146.957 12.384L146.813 13.704V15L146.909 16.464L147.989 17.784L149.261 17.736L150.413 17.664L151.445 17.616L152.693 17.784L153.869 18.864L153.845 20.208L152.693 21.48L150.341 21.624L149.069 21.48L147.797 21.672L146.501 21.624L145.277 21.672H144.221L143.045 20.424Z" fill="currentColor"/>
<path d="M155.674 20.376L155.818 19.152L155.842 17.976L155.65 16.896V15.6L155.77 14.664L155.722 13.44L155.674 12.12L155.698 11.064L155.65 9.792L155.674 8.64L155.842 7.632L155.794 6.408L155.842 5.184L155.674 4.056L155.794 2.856L156.706 1.776H157.954L159.418 2.616L159.946 3.648L160.642 4.704L161.05 5.808L161.722 6.792L162.202 7.944L162.826 8.928L163.45 9.816L163.882 10.92H164.458V9.744L164.482 8.592V7.344L164.434 6.312L164.578 5.016L164.482 3.936L164.41 2.856L165.826 1.656L167.146 1.584L168.346 2.784L168.394 4.128L168.37 5.28L168.394 6.336L168.298 7.536L168.37 8.616V9.768L168.442 11.016L168.298 12.312L168.346 13.392L168.322 14.544L168.346 15.744L168.37 16.824L168.394 18.096L168.298 19.128V20.304L167.314 21.648L166.258 21.504L164.578 20.448L164.146 19.464L163.426 18.504L162.874 17.328L161.842 15.36L161.386 14.256L160.834 13.368L160.282 12.264L159.754 12.456L159.73 13.488L159.706 14.592L159.562 15.72L159.682 17.016L159.658 18.096L159.73 19.2L159.61 20.304L158.242 21.48L157.042 21.552L155.674 20.376Z" fill="currentColor"/>
<path d="M174.994 20.424L175.09 19.08L174.994 17.928L175.042 16.536L175.138 15.312L175.09 14.064L174.97 12.864L175.09 11.736L174.97 10.56L175.162 9.36L174.97 8.064L175.114 6.84L173.794 5.448L172.426 5.592L171.034 5.616L169.786 4.32L169.738 2.928L171.058 1.704L172.138 1.728H173.386L174.682 1.584H175.786L176.962 1.608L178.138 1.704L179.314 1.656L180.658 1.68L181.882 1.584L183.01 1.728L184.186 3.024L184.282 4.344L183.01 5.568L181.666 5.472L180.202 5.448L179.05 6.792L178.954 8.112V9.312L179.026 10.368L178.978 11.64L178.906 12.936L179.074 14.184V15.288L178.978 16.704L179.074 17.904L178.978 19.152L178.882 20.256L177.658 21.528L176.362 21.456L174.994 20.424Z" fill="currentColor"/>
<path d="M89.2185 6.95776L90.0359 7.28882L90.0583 7.29761L90.0788 7.31226L91.4187 8.28687L91.4372 8.30054L91.4529 8.31812L91.9577 8.90991L91.9802 8.93726L91.9929 8.97046L92.323 9.85718L92.3259 9.86499L92.3279 9.8728L92.5368 10.6033L92.572 10.7253L92.4763 10.8083L91.4577 11.698L91.3757 11.6931L90.4568 11.6375L90.4148 11.613L89.3708 10.9861L89.321 10.9558L89.2947 10.9041L88.991 10.2966L87.7712 10.4226L87.616 11.5935L88.1286 11.9744L88.6687 12.3015L90.3523 12.8337L90.3845 12.8445L91.0984 13.3796L91.8992 13.9138L91.9138 13.9294L92.5232 14.5554L92.5378 14.5701L92.5486 14.5876L93.0007 15.3015L93.0134 15.321L93.0212 15.3435L93.3171 16.2136L93.3288 16.2468L93.3279 16.282L93.2927 18.1443V18.1609L93.2898 18.1775L93.1501 18.908L93.1433 18.9451L93.1228 18.9773L92.6189 19.7781L92.614 19.7849L92.6101 19.7908L92.1052 20.4695L92.0945 20.4841L92.0808 20.4968L91.3845 21.1404L91.365 21.1589L91.3415 21.1707L90.5759 21.571L90.5544 21.5818L90.532 21.5876L89.6765 21.8015L89.656 21.8025L87.9861 21.8718L87.948 21.8738L87.9128 21.8621L87.0954 21.5828L87.0837 21.5798L86.3181 21.2654L86.3005 21.2585L86.2839 21.2478L85.571 20.7781L85.5515 20.7654L84.9441 20.1218L84.9226 20.0994L84.9089 20.072L84.5261 19.2898L84.5222 19.281L84.5193 19.2722L84.2234 18.489L84.2175 18.4734L84.2136 18.4558L84.0749 17.7253L84.0554 17.6238L84.9792 16.6619L85.0388 16.6003H86.0974L86.1511 16.6423L87.2478 17.4949L87.2868 17.5251L87.3074 17.5701L87.6169 18.2566L87.9939 18.5496H89.4919L90.1023 17.9099L89.9792 16.4529L89.198 16.0242L87.6824 15.4216L86.7742 15.1199L86.7507 15.1033L86.0378 14.6169L86.0329 14.613L85.4587 14.1951L85.4324 14.1765L85.4138 14.1511L84.8747 13.4021L84.866 13.3914L85.0368 13.2859L84.8669 13.3904L84.4148 12.6599L84.3952 12.6296L84.3884 12.5935L84.2322 11.8113L84.2263 11.7839L84.2283 11.7566L84.3503 10.1726L84.3523 10.1531L84.5271 9.17847L84.5359 9.12476L84.572 9.08374L85.2156 8.33569L85.2214 8.32886L85.7615 7.75464L85.7829 7.7312L85.8103 7.71655L86.5066 7.33374L86.5163 7.32788L86.5261 7.32397L87.3611 6.97632L87.3972 6.96069H87.4363L89.1413 6.94312H89.1814L89.2185 6.95776Z" fill="currentColor"/>
</svg>
